<svg xmlns="http://www.w3.org/2000/svg" xmlns:xlink="http://www.w3.org/1999/xlink" id="svg" width="96" height="96" version="1.1" viewBox="0 0 400 384.211"><g id="svgg"><path id="path0" fill="#000" fill-rule="evenodd" stroke="none" d="M192.105 24.691 C 184.145 28.017,172.599 33.320,166.447 36.475 L 155.263 42.212 155.263 83.230 C 155.263 121.277,154.930 124.107,150.658 122.312 C 138.674 117.274,133.040 118.181,109.090 129.002 L 84.211 140.242 84.211 230.233 L 84.211 320.223 63.816 329.582 C 52.599 334.730,40.116 339.688,36.077 340.600 C 32.037 341.513,29.377 343.303,30.165 344.578 C 36.873 355.431,119.266 317.654,174.522 278.391 L 200.359 260.032 213.995 269.782 C 272.202 311.401,323.728 337.827,359.868 344.595 C 375.196 347.465,373.959 343.494,357.860 338.146 C 335.370 330.677,336.842 338.687,336.842 223.744 L 336.842 121.549 320.038 113.685 C 285.897 97.709,286.200 97.748,265.132 106.537 C 260.887 108.307,260.526 105.847,260.526 75.102 L 260.526 41.746 235.569 30.084 C 206.583 16.538,210.465 17.020,192.105 24.691 M257.217 77.125 C 257.984 116.331,255.217 120.095,232.719 110.451 C 218.836 104.500,218.421 104.420,218.421 107.691 C 218.421 109.026,222.566 111.486,227.632 113.158 C 236.117 115.958,240.362 121.053,234.211 121.053 C 232.763 121.053,231.579 125.033,231.579 129.898 C 231.579 138.056,231.016 138.660,224.342 137.662 L 217.105 136.580 224.342 140.742 C 230.543 144.309,231.579 146.595,231.579 156.713 C 231.579 168.215,231.391 168.481,224.342 166.976 C 217.415 165.497,217.324 165.607,222.213 169.558 C 225.023 171.827,228.280 173.684,229.450 173.684 C 230.621 173.684,231.579 181.382,231.579 190.789 C 231.579 200.439,232.726 207.895,234.211 207.895 C 235.854 207.895,236.842 192.212,236.842 166.109 L 236.842 124.324 258.553 114.973 L 280.263 105.622 280.971 166.545 C 281.381 201.852,282.764 228.554,284.260 230.050 C 285.948 231.738,286.842 210.507,286.842 168.728 C 286.842 133.581,287.807 105.219,288.985 105.702 C 290.164 106.184,300.822 110.643,312.670 115.611 L 334.211 124.643 334.211 225.479 C 334.211 292.558,333.308 326.316,331.514 326.316 C 328.245 326.316,298.824 308.093,278.947 293.757 C 263.943 282.936,255.079 275.638,233.135 256.036 L 220.218 244.498 230.380 234.091 C 242.596 221.581,240.467 220.523,226.181 232.004 C 216.104 240.102,215.687 240.196,210.545 235.544 C 203.512 229.178,203.749 228.007,214.474 216.136 C 219.539 210.529,223.684 204.341,223.684 202.385 C 223.684 200.429,218.493 204.717,212.148 211.914 L 200.611 225.000 190.041 213.158 C 184.228 206.645,178.748 202.021,177.862 202.883 C 176.977 203.745,180.959 209.797,186.712 216.332 L 197.171 228.215 190.661 234.331 L 184.150 240.448 175.009 231.588 C 169.982 226.715,164.962 223.654,163.855 224.785 C 162.748 225.916,166.311 230.721,171.772 235.463 L 181.702 244.085 163.877 259.759 C 146.260 275.250,110.739 302.746,96.711 311.750 L 89.474 316.395 89.474 229.642 L 89.474 142.889 108.553 134.363 C 119.046 129.673,129.112 125.225,130.921 124.479 C 133.485 123.420,134.211 134.208,134.211 173.403 C 134.211 205.169,135.180 223.684,136.842 223.684 C 138.505 223.684,139.474 205.190,139.474 173.465 C 139.474 145.844,140.438 123.640,141.617 124.123 C 142.796 124.605,153.417 129.049,165.219 133.998 L 186.678 142.996 187.513 172.156 L 188.349 201.316 188.911 170.542 L 189.474 139.769 174.073 132.858 L 158.673 125.946 158.144 85.782 L 157.616 45.617 179.030 35.966 C 190.807 30.659,201.528 26.316,202.853 26.316 C 204.215 26.316,205.263 45.208,205.263 69.737 C 205.263 96.930,206.247 113.158,207.895 113.158 C 209.545 113.158,210.526 96.570,210.526 68.656 L 210.526 24.154 233.553 34.352 L 256.579 44.551 257.217 77.125 M218.421 48.561 C 218.421 50.779,243.030 60.658,245.868 59.580 C 247.417 58.991,243.355 56.029,236.842 52.997 C 225.502 47.718,218.421 46.013,218.421 48.561 M219.868 78.780 C 224.145 82.995,247.368 92.051,247.368 89.503 C 247.368 88.175,241.889 84.665,235.192 81.702 C 222.082 75.903,215.719 74.690,219.868 78.780 M297.368 125.811 C 297.368 128.002,302.282 130.476,323.026 138.728 C 324.836 139.448,326.316 138.887,326.316 137.481 C 326.316 136.076,320.696 132.692,313.828 129.963 C 306.960 127.233,300.447 124.605,299.354 124.123 C 298.262 123.640,297.368 124.400,297.368 125.811 M205.263 131.579 C 205.263 134.474,206.447 136.842,207.895 136.842 C 209.342 136.842,210.526 134.474,210.526 131.579 C 210.526 128.684,209.342 126.316,207.895 126.316 C 206.447 126.316,205.263 128.684,205.263 131.579 M150.010 146.711 C 150.022 149.143,170.955 157.939,176.343 157.776 C 178.499 157.710,174.934 154.803,168.421 151.316 C 156.261 144.804,149.993 143.236,150.010 146.711 M205.263 169.737 C 205.263 179.386,206.410 186.842,207.895 186.842 C 209.379 186.842,210.526 179.386,210.526 169.737 C 210.526 160.088,209.379 152.632,207.895 152.632 C 206.410 152.632,205.263 160.088,205.263 169.737 M297.368 154.832 C 297.368 157.158,319.674 168.421,324.281 168.421 C 329.584 168.421,323.107 163.808,309.868 158.156 C 302.993 155.220,297.368 153.725,297.368 154.832 M150.000 175.739 C 150.000 177.110,155.619 180.466,162.488 183.195 C 169.356 185.925,175.869 188.553,176.961 189.035 C 178.054 189.518,178.947 188.790,178.947 187.419 C 178.947 186.048,173.328 182.692,166.460 179.963 C 159.591 177.233,153.078 174.605,151.986 174.123 C 150.894 173.640,150.000 174.368,150.000 175.739 M298.556 186.635 C 300.594 189.933,323.434 198.495,325.277 196.652 C 326.089 195.841,321.175 192.709,314.358 189.694 C 300.921 183.750,296.209 182.838,298.556 186.635 M297.368 215.201 C 297.368 216.634,299.441 218.409,301.974 219.144 C 304.507 219.879,311.020 222.401,316.447 224.749 C 321.875 227.097,326.316 227.946,326.316 226.637 C 326.316 224.604,321.302 222.116,300.658 213.903 C 298.849 213.184,297.368 213.768,297.368 215.201 M207.685 237.934 L 213.655 244.290 206.760 248.807 C 195.792 255.994,186.408 247.023,195.155 237.713 C 202.086 230.335,200.520 230.308,207.685 237.934 M134.211 238.003 C 134.211 240.088,135.395 242.527,136.842 243.421 C 138.289 244.316,139.474 242.609,139.474 239.629 C 139.474 236.649,138.289 234.211,136.842 234.211 C 135.395 234.211,134.211 235.917,134.211 238.003 M283.333 243.860 C 280.539 246.654,281.304 265.789,284.211 265.789 C 285.658 265.789,286.842 260.461,286.842 253.947 C 286.842 241.899,286.443 240.750,283.333 243.860 M297.368 244.377 C 297.368 246.403,320.714 257.895,324.830 257.895 C 328.380 257.895,325.893 253.123,321.711 251.909 C 319.178 251.174,312.664 248.651,307.237 246.303 C 301.809 243.956,297.368 243.089,297.368 244.377 M191.284 261.190 C 175.868 273.537,132.870 301.095,110.526 312.950 C 82.111 328.027,73.394 330.639,95.086 317.576 C 113.928 306.230,149.894 278.832,169.140 261.162 C 184.256 247.284,184.364 247.238,190.687 251.897 L 197.043 256.579 191.284 261.190 M222.618 252.946 C 231.461 262.785,279.621 300.562,300.000 313.645 C 324.988 329.686,321.541 329.899,292.322 314.118 C 236.867 284.169,203.327 259.133,209.509 252.302 C 215.164 246.053,216.481 246.118,222.618 252.946 M134.211 261.687 C 134.211 265.220,135.395 268.842,136.842 269.737 C 138.377 270.686,139.474 268.010,139.474 263.313 C 139.474 258.886,138.289 255.263,136.842 255.263 C 135.395 255.263,134.211 258.154,134.211 261.687 M182.871 300.024 L 164.567 318.469 183.599 337.501 L 202.632 356.534 221.664 337.501 L 240.696 318.469 222.392 300.024 C 212.325 289.879,203.433 281.579,202.632 281.579 C 201.830 281.579,192.938 289.879,182.871 300.024 M218.450 332.813 L 202.634 348.629 187.557 333.552 L 172.480 318.475 188.134 302.656 L 203.789 286.836 219.028 301.916 L 234.267 316.996 218.450 332.813"/></g></svg>