<svg width="96" height="96" xmlns="http://www.w3.org/2000/svg" xmlns:xlink="http://www.w3.org/1999/xlink" overflow="hidden"><defs><clipPath id="clip0"><rect x="0" y="0" width="96" height="96"/></clipPath><clipPath id="clip1"><rect x="13" y="13" width="70" height="70"/></clipPath><clipPath id="clip2"><rect x="13" y="13" width="70" height="70"/></clipPath></defs><g clip-path="url(#clip0)"><path d="M0 0 96 0 96 96 0 96Z" fill="#FFFFFF" fill-rule="evenodd" fill-opacity="0"/><g clip-path="url(#clip1)"><g clip-path="url(#clip2)"><path d="M121.915 131.484 122.209 131.484 121.581 133.411 120.904 135.5 112.875 135.5 114.591 130.217 125.591 96.3644 109.213 96.3644 113.382 83.5305 137.495 83.5305Z" fill="#F15A29" transform="matrix(1 0 0 1.00004 -85.1774 -59.2015)"/><path d="M163.21 79.5122 160.077 89.1488 159.039 92.3456 142.661 92.3456 129.945 131.484 121.915 131.484 137.495 83.5305 138.801 79.5122Z" fill="#F7941E" transform="matrix(1 0 0 1.00004 -85.1774 -59.2015)"/></g></g></g></svg>